<svg xmlns="http://www.w3.org/2000/svg" width="850" height="280" viewBox="0 0 850 280" role="img" aria-labelledby="title desc">
  <title id="title">Do grão à xícara: observar, ajustar e provar</title>
  <desc id="desc">Três imagens conectadas: um grão verde, uma curva de calor conceitual e uma xícara. Não há temperaturas ou tempos prescritos.</desc>
  <defs><linearGradient id="canvas" x2="0" y2="1"><stop stop-color="#e8f0e9"/><stop offset="1" stop-color="#f7f2e8"/></linearGradient></defs>
  <rect width="850" height="280" rx="14" fill="url(#canvas)"/>
  <path d="M192 145C245 145 269 145 310 145M536 145C593 145 619 145 659 145" stroke="#719484" stroke-width="3" stroke-dasharray="5 8" fill="none"/>
  <circle cx="145" cy="145" r="73" fill="#d8e7d9" stroke="#8cae96" stroke-width="2"/>
  <circle cx="425" cy="145" r="73" fill="#f2dfae" stroke="#d7bf89" stroke-width="2"/>
  <circle cx="705" cy="145" r="73" fill="#d9e7df" stroke="#9fbba8" stroke-width="2"/>
  <path d="M111 141c0-23 18-40 36-40s38 17 38 40-20 48-38 48-36-25-36-48Z" fill="#709b71" stroke="#315a47" stroke-width="3"/>
  <path d="M150 103c-17 20-20 39-12 57s7 24 2 30" stroke="#d9e9ce" stroke-width="5" fill="none" stroke-linecap="round"/>
  <path d="M375 171h102M386 165l19-15 22 6 22-47 18 23" fill="none" stroke="#9d6846" stroke-width="5" stroke-linecap="round" stroke-linejoin="round"/>
  <circle cx="449" cy="109" r="6" fill="#9d6846"/>
  <path d="M669 124h72l-7 40c-10 9-47 10-58 0Z" fill="#fbf8ed" stroke="#426758" stroke-width="4"/>
  <path d="M739 130c27-5 31 29-2 32" fill="none" stroke="#426758" stroke-width="5"/>
  <path d="M676 126c18-6 46-6 59 0" fill="none" stroke="#ac7357" stroke-width="5"/>
  <g font-family="Arial,sans-serif" font-size="17" font-weight="700" fill="#2f5b49" letter-spacing="1.5" text-anchor="middle">
    <text x="145" y="245">OBSERVAR</text><text x="425" y="245">AJUSTAR</text><text x="705" y="245">PROVAR</text>
  </g>
  <text x="425" y="42" text-anchor="middle" fill="#345847" font-family="Arial,sans-serif" font-size="15" letter-spacing="2">CADA LOTE PEDE UMA LEITURA</text>
</svg>
